<svg id="eoTbxwHjNOW1" xmlns="http://www.w3.org/2000/svg" xmlns:xlink="http://www.w3.org/1999/xlink" viewBox="0 0 110 55" shape-rendering="geometricPrecision" text-rendering="geometricPrecision"><path d="M22.419,13.371c-.379.3813-.6692.8415-.85,1.3477s-.2477,1.0462-.196,1.5813l-.018-.018c.0532.6299-.0318,1.2637-.2489,1.8574s-.5611,1.1327-1.008,1.5797c-.447.4469-.9861.791-1.5798,1.008s-1.2275.3021-1.8573.2489l.018.018c-.7534-.0701-1.5101.0938-2.167.4695s-1.1818.9448-1.5033,1.6298-.424,1.4524-.2934,2.1978c.1307.7453.488,1.4322,1.0233,1.967s1.2225.8915,1.9679,1.0214c.7455.13,1.5128.0268,2.1975-.2953.6847-.3222,1.2533-.8476,1.6284-1.5048s.5384-1.414.4676-2.1674l.019.018c-.0532-.6298.0317-1.2637.2488-1.8574s.5612-1.1327,1.0081-1.5797.9861-.791,1.5797-1.008c.5937-.2171,1.2275-.3021,1.8574-.2489l-.019-.018c.6154.0553,1.2349-.0456,1.801-.2934.566-.2478,1.0604-.6345,1.4372-1.1242s.624-1.0667.7184-1.6773.0333-1.2353-.1779-1.8161-.5656-1.0987-1.0303-1.506-1.0247-.6907-1.6281-.8239-1.2307-.112-1.8237.0617-1.1325.4944-1.5686.9322h-.003Z" transform="translate(36.406561-.178642)" fill="#0d4a21"/><path d="M15.042,18.636l-.019-.018c.5353.0539,1.0759-.0118,1.5828-.1924s.9672-.4715,1.3478-.8518c.3805-.3803.6719-.8405.8528-1.3472s.2471-1.0472.1936-1.5826l.019.018c-.0532-.6299.0318-1.2637.2488-1.8574s.5612-1.1327,1.0081-1.5797c.447-.4469.9861-.791,1.5797-1.008.5937-.21714,1.2275-.30207,1.8574-.2489l-.019-.018c.7535.0708,1.5104-.09264,2.1676-.4679s1.1827-.94413,1.5047-1.629.4249-1.45239.2947-2.1979-.4872-1.43269-1.0224-1.96783-1.2223-.89217-1.9678-1.02239-1.513-.02732-2.1979.2947-1.2537.84746-1.629,1.50467-.5387,1.41417-.4679,2.16765l-.018-.019c.0533.62989-.0315,1.26383-.2485,1.85755s-.5611,1.13291-1.008,1.57995c-.447.4469-.9862.791-1.5799,1.008s-1.2277.3018-1.8576.2485l.018.019c-.5353-.0539-1.076.0118-1.5828.1924s-.9672.4715-1.3478.8518-.6719.8405-.8529,1.3472-.247,1.0472-.1935,1.5826l-.018-.018c.053.6298-.0321,1.2636-.2492,1.8572s-.5612,1.1326-1.0081,1.5795-.98598.7909-1.57954,1.0081c-.59356.2171-1.22735.3022-1.85716.2492l.018.018c-.75348-.0708-1.51045.0926-2.16766.4679s-1.18265.9441-1.50466,1.629-.42494,1.4524-.29471,2.1979.48727,1.4327,1.0224,1.9678s1.22232.8922,1.96783,1.0224s1.51304.0273,2.19791-.2947s1.25373-.8474,1.62899-1.5046c.3753-.6573.5387-1.4142.4679-2.1677l.019.018c-.0532-.6299.0318-1.2637.2489-1.8574s.5611-1.1327,1.008-1.5797.9861-.791,1.5797-1.008s1.2275-.3021,1.8574-.2489v0Z" transform="translate(36.406561-.178641)" fill="#16853b"/><path d="M8.34,16.629c.37902-.3812.6692-.8414.84984-1.3477s.24728-1.0463.19516-1.5813l.01899.018c-.0532-.63.03176-1.2641.24897-1.8579s.56144-1.133,1.00864-1.58.9865-.79097,1.5804-1.00792s1.228-.30166,1.858-.24818l-.019-.018c.7532.07057,1.5099-.09292,2.1668-.46816s1.182-.94396,1.5039-1.62861.4246-1.45191.2944-2.19714-.4872-1.43215-1.0221-1.96709-1.2219-.89186-1.9671-1.02208-1.5125-.02741-2.1971.29441-1.2534.84699-1.6286,1.50389-.5388,1.41356-.4682,2.16678l-.018-.018c.0532.62985-.0318,1.26372-.2489,1.85736s-.56108,1.13275-1.00804,1.57971-.98607.79099-1.57971,1.00803-1.2275.3021-1.85735.2489l.018.018c-.61543-.0552-1.23484.0459-1.80082.2938s-1.06023.6347-1.43694,1.1245c-.37671.4897-.62369,1.0667-.71807,1.6773s-.03308,1.2353.17819,1.8159.5657,1.0986,1.03043,1.5058c.46473.4073,1.02473.6906,1.62811.8238.60337.1331,1.2306.1118,1.82357-.0619s1.13246-.4944,1.56852-.9322h-.00199Z" transform="translate(36.406561-.178644)" fill="#20bf55"/><path d="M39.317,6.655h2.97v14.453h-2.97v-14.453Z" transform="translate(-33.5165 28.155436)" fill="#031007"/><path d="M43.969,16.159c-.0041-1.0386.3001-2.0552.8741-2.9208s1.392-1.5414,2.3504-1.9417s2.014-.5073,3.0332-.3072s1.9561.6981,2.692,1.4311c.7359.7329,1.2377,1.6678,1.4419,2.6862s.1015,2.0745-.295,3.0345c-.3965.9599-1.069,1.7807-1.9323,2.3581-.8634.5775-1.8786.8858-2.9173.8858-.6894.0079-1.3735-.1218-2.0123-.3814s-1.2194-.6439-1.7079-1.1304c-.4886-.4866-.8752-1.0657-1.1373-1.7034s-.3946-1.3213-.3895-2.0108Zm7.524,0c-.0124-.4477-.1565-.8818-.4142-1.2481-.2578-.3662-.6178-.6484-1.035-.8111-.4173-.1628-.8732-.199-1.3109-.104s-.8377.3168-1.15.6379-.523.727-.6057,1.1672c-.0828.4401-.0341.8949.1402,1.3075s.4663.7646.8395,1.0121c.3733.2475.8113.3795,1.2591.3795.3067.0082.6118-.0473.8961-.1629s.5414-.2888.7553-.5087.38-.4819.4876-.7692c.1077-.2873.1547-.5938.138-.9002Z" transform="translate(-33.5165 28.155436)" fill="#031007"/><path d="M66.3,11.209v9.4c0,3.326-2.594,4.732-5.227,4.732-.927.0694-1.8553-.1179-2.683-.5412-.8276-.4234-1.5227-1.0665-2.009-1.8588l2.534-1.465c.2044.413.5301.7537.9334.9766.4034.2228.8652.3172,1.3236.2704.293.0406.5914.0148.8731-.0755s.5394-.2428.7542-.4461.3811-.4524.4867-.7288c.1055-.2763.1475-.5728.123-.8676v-.905c-.3478.4255-.7904.7636-1.2925.9871s-1.0495.3262-1.5985.2999c-1.3062-.0412-2.5451-.589-3.4545-1.5276-.9094-.9385-1.4179-2.1941-1.4179-3.5009s.5085-2.5624,1.4179-3.5009s2.1483-1.4864,3.4545-1.5276c.549-.0263,1.0964.0764,1.5985.2999s.9447.5616,1.2925.9871v-1.01l2.891.002ZM63.41,15.96c.02-.4786-.1038-.9523-.3553-1.36s-.6193-.7309-1.056-.9278c-.4367-.197-.9223-.2587-1.3944-.1773s-.909.3022-1.2546.6341c-.3455.3318-.5838.7594-.6843,1.2278-.1004.4684-.0584.9562.1208,1.4005.1791.4443.4871.8249.8843,1.0927s.8655.4106,1.3445.41c.3121.0218.6252-.022.9193-.1286s.5626-.2737.7882-.4903c.2256-.2167.4034-.4782.5218-.7678s.1749-.6006.1657-.9133Z" transform="translate(-33.5165 28.155437)" fill="#031007"/><path d="M67.982,16.159c-.0041-1.0386.3-2.0552.8741-2.9208.574-.8656,1.392-1.5414,2.3504-1.9417s2.014-.5073,3.0332-.3072s1.9561.6981,2.692,1.4311c.7359.7329,1.2377,1.6678,1.4419,2.6862s.1015,2.0745-.295,3.0345c-.3965.9599-1.069,1.7807-1.9323,2.3581-.8634.5775-1.8786.8858-2.9173.8858-.6894.0079-1.3736-.1218-2.0123-.3814-.6388-.2596-1.2194-.6439-1.7079-1.1304s-.8752-1.0657-1.1373-1.7034-.3946-1.3213-.3895-2.0108Zm7.524,0c-.0124-.4477-.1565-.8818-.4142-1.2481-.2578-.3662-.6178-.6484-1.035-.8111-.4173-.1628-.8733-.199-1.3109-.104-.4377.095-.8377.3168-1.15.6379s-.523.727-.6058,1.1672c-.0828.4401-.034.8949.1403,1.3075s.4663.7646.8395,1.0121c.3733.2475.8112.3795,1.2591.3795.3067.0082.6118-.0473.896-.1629.2843-.1156.5415-.2888.7554-.5087s.38-.4819.4876-.7692c.1077-.2873.1547-.5938.138-.9002Z" transform="translate(-33.5165 28.155436)" fill="#031007"/><path d="M79.861,8.556c0-.35245.1045-.69698.3003-.99002s.4742-.52146.7998-.65633.6839-.17017,1.0296-.10141c.3456.06876.6632.23848.9124.4877s.4189.56673.4877.91241.0334.70397-.1014,1.02959c-.1349.32562-.3633.60393-.6564.79976-.293.1958-.6375.3003-.99.3003-.4711-.0047-.9217-.1939-1.2549-.52712-.3331-.33318-.5224-.78372-.5271-1.25488Zm.3,2.653h2.971v9.9h-2.975l.004-9.9Z" transform="translate(-33.5165 28.155436)" fill="#031007"/><path d="M95.956,16.159c.0343.6543-.061,1.3089-.2806,1.9262-.2195.6173-.5589,1.1851-.9987,1.6708-.4397.4856-.9712.8796-1.5637,1.1592-.5926.2795-1.2345.4392-1.889.4698-.5504.03-1.1005-.0628-1.6106-.2717s-.9672-.5288-1.3384-.9363v4.891h-2.97v-13.859h2.97v.93c.3713-.4072.8286-.7268,1.3386-.9355s1.0601-.3015,1.6104-.2715c.6546.0305,1.2967.1901,1.8894.4697s1.1242.6736,1.564,1.1594.7792,1.0538.9986,1.6713.3146,1.2722.28,1.9266Zm-2.97,0c-.0116-.4633-.1596-.9129-.4255-1.2926s-.6378-.6724-1.0692-.8416c-.4315-.1693-.9033-.2076-1.3564-.11s-.8673.3265-1.1909.6583-.5421.7517-.6282,1.2072-.036.926.1441,1.3531c.18.4271.4821.7915.8683,1.0478s.8393.3929,1.3028.3928c.3182.0142.6358-.0391.932-.1563.2961-.1171.5642-.2956.7865-.5236.2224-.2281.394-.5005.5037-.7995s.155-.6179.1328-.9356Z" transform="translate(-33.5165 28.155436)" fill="#031007"/><path d="M105.121,18.138c0,2.277-1.979,3.247-4.117,3.247-.864.0782-1.7313-.1044-2.4902-.5245-.7589-.42-1.3743-1.058-1.7668-1.8315l2.573-1.465c.1041.3575.3277.6686.6334.8811.3056.2126.6756.3139,1.0466.2869.712,0,1.069-.218,1.069-.613c0-1.09-4.871-.515-4.871-3.94c0-2.159,1.822-3.247,3.881-3.247.774-.0245,1.54.1591,2.219.5316.679.3726,1.246.9204,1.641,1.5864l-2.534,1.366c-.111-.2593-.296-.4802-.532-.6351s-.512-.2369-.794-.2359c-.515,0-.832.2-.832.554.004,1.129,4.874.376,4.874,4.039Z" transform="translate(-33.5165 28.155437)" fill="#031007"/><path d="M115.97,11.209v9.9h-2.97v-.931c-.343.4108-.778.7345-1.27.9445s-1.026.3003-1.56.2635c-2,0-3.7-1.425-3.7-4.1v-6.077h2.97v5.642c-.025.2358.002.4742.079.6985.076.2244.201.4294.365.6007s.363.3048.584.3913c.22.0865.457.1239.694.1095c1.089,0,1.841-.633,1.841-2.039v-5.4l2.967-.003Z" transform="translate(-33.5165 28.155437)" fill="#031007"/><path d="M133,15.03v6.078h-2.97v-5.821c0-.99-.475-1.623-1.425-1.623-.99,0-1.545.693-1.545,1.861v5.583h-2.969v-5.821c0-.99-.475-1.623-1.426-1.623-.99,0-1.544.693-1.544,1.861v5.583h-2.97v-9.9h2.97v.91c.308-.4037.712-.7239,1.175-.9312.464-.2074.972-.2953,1.478-.2558.508-.0249,1.014.0824,1.469.3113.454.2288.841.5716,1.124.9947.329-.4427.765-.7947,1.267-1.0231s1.054-.3257,1.604-.2829c2.273.001,3.762,1.624,3.762,4.099Z" transform="translate(-33.5165 28.155436)" fill="#031007"/><path d="M135.512,11.148c1.217,0,2.204-.9868,2.204-2.204s-.987-2.204-2.204-2.204-2.204.98676-2.204,2.204.987,2.204,2.204,2.204Z" transform="translate(-33.5165 28.155436)" fill="#031007"/></svg>